<svg width="56" height="56" viewBox="0 0 56 56" version="1.1" xmlns="http://www.w3.org/2000/svg" xmlns:xlink="http://www.w3.org/1999/xlink">
<title>Logo</title>
<desc>Created using Figma</desc>
<g id="Canvas" transform="translate(354 504)">
<g id="Logo">
<g id="Ellipse">
<use xlink:href="#path0_fill" transform="translate(-354 -504)" fill="#333333"/>
</g>
<g id="Logo">
<use xlink:href="#path1_fill" transform="translate(-354 -504)" fill="#F2C94C"/>
</g>
</g>
</g>
<defs>
<path id="path0_fill" d="M 56 28C 56 43.464 43.464 56 28 56C 12.536 56 0 43.464 0 28C 0 12.536 12.536 0 28 0C 43.464 0 56 12.536 56 28Z"/>
<path id="path1_fill" fill-rule="evenodd" d="M 28 56C 43.464 56 56 43.464 56 28C 56 12.536 43.464 0 28 0C 12.536 0 0 12.536 0 28C 0 43.464 12.536 56 28 56ZM 10.2763 31.8449L 10.3502 24.3814C 10.3502 18.5435 10.0669 15.2428 9.50037 14.4792C 9.22941 14.1343 9.09394 13.9003 9.09394 13.7772C 9.09394 13.6294 9.25405 13.4692 9.57427 13.2968C 9.91912 13.0998 10.5719 12.8904 11.5325 12.6687C 12.4932 12.447 13.343 12.3362 14.082 12.3362C 14.8209 12.3362 15.1904 12.5086 15.1904 12.8534L 15.1165 13.3338C 14.8209 15.9941 14.6732 18.5928 14.6732 21.1299C 14.6732 23.667 14.7471 26.4997 14.8948 29.628C 15.0426 32.7563 15.1165 35.0595 15.1165 36.5374C 15.1165 38.5326 14.3406 40.2446 12.7888 41.6732C 11.2616 43.1265 9.43879 43.9148 7.32041 44.0379C 6.90166 43.9887 6.69229 43.8409 6.69229 43.5946C 6.69229 43.4221 6.75387 43.2867 6.87703 43.1881L 7.24652 42.8186C 7.39431 42.6708 7.66526 42.289 8.05938 41.6732C 8.4535 41.0574 8.79835 40.3554 9.09394 39.5672C 9.38953 38.8036 9.66048 37.7321 9.9068 36.3527C 10.1531 34.9732 10.2763 33.4707 10.2763 31.8449ZM 29.6399 17.0656L 29.4921 18.211C 29.4921 18.5066 29.6645 18.7282 30.0094 18.876C 30.3788 19.0238 30.7483 19.0977 31.1178 19.0977C 31.906 19.0977 32.5465 18.8021 33.0391 18.211C 33.5564 17.6198 33.815 16.8808 33.815 15.9941C 33.815 14.7624 33.1869 13.8018 31.9307 13.1121C 30.6744 12.3977 29.1349 12.0406 27.3121 12.0406C 23.8636 12.0406 21.2772 13.1367 19.5529 15.329C 18.5923 16.536 18.112 18.0262 18.112 19.7998C 18.112 21.5486 18.7031 22.9404 19.8855 23.9749C 20.4274 24.4676 20.92 24.8494 21.3634 25.1203C 21.8068 25.3913 22.2256 25.6253 22.6197 25.8223C 23.0138 26.0194 23.7651 26.3519 24.8735 26.82C 26.0066 27.288 27.0535 27.8668 28.0141 28.5565C 29.295 29.4926 29.9355 30.7119 29.9355 32.2144C 29.9355 33.4707 29.5167 34.5052 28.6792 35.3181C 27.8663 36.131 26.7825 36.5374 25.4277 36.5374C 25.1322 36.5374 24.738 36.4512 24.2454 36.2788C 22.866 35.7861 22.1763 34.7885 22.1763 33.2859L 22.2502 32.8795C 22.2748 32.6086 22.398 32.276 22.6197 31.8819C 22.866 31.4878 23.1493 31.1922 23.4695 30.9951C 23.7897 30.7981 23.9498 30.5518 23.9498 30.2562C 23.9498 29.665 23.6665 29.2093 23.1 28.8891C 22.5335 28.5442 21.9053 28.3718 21.2156 28.3718L 20.7722 28.4087C 20.1072 28.458 19.3682 28.8152 18.5553 29.4802C 18.1612 29.8005 17.8164 30.3054 17.5208 30.9951C 17.2498 31.6602 17.1143 32.4484 17.1143 33.3598L 17.1143 33.3968C 17.1143 35.2442 17.9026 36.7221 19.4791 37.8306C 21.0802 38.9144 23.0877 39.4563 25.5016 39.4563C 27.9402 39.4563 30.1079 38.705 32.0046 37.2025C 33.9259 35.6999 34.8866 33.4337 34.8866 30.404C 34.8866 28.8521 34.4678 27.522 33.6303 26.4135C 32.7928 25.3051 31.7706 24.4553 30.5636 23.8641C 29.3812 23.2729 28.1866 22.731 26.9796 22.2383C 25.7972 21.7211 24.7873 21.1299 23.9498 20.4648C 23.1123 19.7751 22.6936 18.9623 22.6936 18.0262C 22.7675 17.238 23.0631 16.4867 23.5803 15.7724C 23.8267 15.4275 24.2208 15.1442 24.7627 14.9226C 25.3046 14.6762 25.945 14.5531 26.684 14.5531L 26.7209 14.5531C 27.0904 14.5531 27.62 14.6639 28.3097 14.8856C 29.1965 15.2058 29.6399 15.9325 29.6399 17.0656ZM 38.2402 14.7378C 38.7329 14.2452 39.4964 13.7895 40.531 13.3707C 41.5656 12.952 42.7356 12.7426 44.0411 12.7426C 45.3466 12.7426 46.4428 12.9397 47.3295 13.3338C 48.2163 13.7033 48.869 14.1343 49.2878 14.627C 49.7065 15.1196 50.0391 15.6862 50.2854 16.3266C 50.6056 17.1641 50.7657 18.0385 50.7657 18.9499C 50.7657 19.8613 50.5194 20.8097 50.0268 21.795C 49.5341 22.7803 48.9429 23.6054 48.2532 24.2705C 47.5635 24.9356 46.8738 25.5514 46.1841 26.1179C 44.5091 27.5466 43.6716 28.7782 43.6716 29.8128C 43.6716 30.404 43.8441 30.9459 44.1889 31.4385C 44.5338 31.9312 44.7062 32.1898 44.7062 32.2144C 44.7062 32.4361 44.4599 32.547 43.9672 32.547C 43.7455 32.547 43.3514 32.4608 42.7849 32.2883C 42.243 32.0913 41.7996 31.8696 41.4547 31.6233C 41.1345 31.3769 40.8389 31.0074 40.568 30.5148C 40.297 29.9975 40.1615 29.4802 40.1615 28.963C 40.1615 28.4457 40.3463 28.0639 40.7157 27.8176C 44.7062 24.9848 46.7014 22.029 46.7014 18.9499C 46.7014 18.1617 46.5906 17.4351 46.3689 16.77C 45.9501 15.4398 45.1372 14.7748 43.9303 14.7748C 42.7479 14.7748 41.8365 15.2428 41.1961 16.1788C 40.5803 17.1148 40.2724 18.2602 40.2724 19.615C 40.2724 20.551 40.5433 21.3516 41.0852 22.0167C 41.2823 22.2384 41.3808 22.3861 41.3808 22.46C 41.3808 22.731 41.0483 22.8665 40.3832 22.8665C 40.0876 22.8665 39.6812 22.7803 39.1639 22.6078C 38.6466 22.4108 38.2156 22.1768 37.8707 21.9058C 37.5505 21.6349 37.2549 21.2038 36.984 20.6126C 36.713 19.9968 36.5775 19.4549 36.5775 18.9869C 36.5775 18.4942 36.5898 18.1248 36.6145 17.8784C 36.6637 17.6075 36.8238 17.1395 37.0948 16.4744C 37.3904 15.8093 37.7722 15.2305 38.2402 14.7378ZM 43.0805 35.5028L 42.1937 35.5398C 41.7749 35.5398 41.4301 35.4413 41.1591 35.2442L 40.7527 34.9486C 40.4325 34.9486 40.2724 35.4905 40.2724 36.5743C 40.2724 37.6582 40.4325 38.3602 40.7527 38.6804C 41.0976 39.0006 41.6764 39.1607 42.4893 39.1607C 43.3268 39.1607 43.881 39.0006 44.152 38.6804C 44.4475 38.3848 44.5953 37.9168 44.5953 37.2764C 44.5953 36.6113 44.4845 36.1556 44.2628 35.9093C 44.0657 35.6383 43.6716 35.5028 43.0805 35.5028Z"/>
</defs>
</svg>
